<svg xmlns="http://www.w3.org/2000/svg" viewBox="0 0 401 401"><g fill="#000"><path  d="M322.28,206.53c1.19-1,2.47-2,3.55-3.1,2.77-2.88,5.53-5.78,8.16-8.8a21.84,21.84,0,0,1,15.17-7.76,128.66,128.66,0,0,1,14.95-.55c5.32.19,8.68,3.61,8.85,9,.36,11.65.36,23.13-3.65,34.52-3.24,9.21-5,19-6.64,28.68-2.7,16-17.23,27-35.42,24.73a5.66,5.66,0,0,1-2.81-.89c-.93-.79-2.12-2-2.09-3a3.87,3.87,0,0,1,2.27-2.83,31.78,31.78,0,0,1,7.36-.85c12.35-.24,20.09-6.14,23.09-18,3.26-12.9,6.61-25.78,9.34-38.8A102,102,0,0,0,366.07,200c.14-6.42-4.58-8.6-10.68-5,.52.81,1,1.64,1.56,2.41,1.62,2.25,1.12,4.25-1.11,5.5-4.18,2.33-5.63,6.2-7,10.44a145.92,145.92,0,0,1-6.14,15.23c-1.09,2.39-1.8,4.41-.72,7.07,2,5.07,0,9.88-1.89,14.46-1.13,2.8-4,2.87-6,.57-.72-.84-1.26-1.82-2.42-3.52-2.42,4.33-4.82,7.91-6.48,11.8-2.69,6.31-6.24,12.36-4.26,20a7.94,7.94,0,0,1-3.91,9.05c-2.71,1.44-2.34,3.21-1.1,5.36a12,12,0,0,1,1.69,3.57c.4,2.15-.86,3.26-2.9,4-1.8.6-4.12,1.24-5,2.63-7.16,10.91-17.4,18.25-28.13,25.08-3.48,2.22-6.45,4.53-6.55,9.31,0,1.24-2.08,2.56-3.38,3.63-1.73,1.43-3.88,2.39-5.4,4-17.27,18-36.23,32.51-63,31.61-8.32-.28-16.66-.1-25,0-12.62.11-24.33-2.65-35.09-9.63a77.44,77.44,0,0,0-14.88-7,54.91,54.91,0,0,1-19-11.61,83.5,83.5,0,0,1-19.92-29c-6.27-15.24-12-30.69-17.77-46.13-1.08-2.9-1.24-6.19-1.47-9.33-.43-5.79-.3-5.89-6.16-7.09s-11.53-2.63-16.47-6.6c-6.92-5.57-10.18-13.14-10.73-21.26-1.16-16.81-.34-33.65,3.9-50.11A115.11,115.11,0,0,1,45.05,166a20.76,20.76,0,0,1,3.6-5.94c5.41-6.26,11.58-6.75,17.14-.66,3.76,4.11,6.44,9.21,9.55,13.91,1,1.45,1.73,3,2.9,5.13,1.07-1.36,1.91-2,2.14-2.78,3.19-11.2,6.52-22.36,9.36-33.65,2.81-11.12,5.46-22.31,7.54-33.59,2.6-14.11,10.27-24.68,21.29-33.26,2.76-2.14,5.24-4.68,8.13-6.61,4.67-3.11,7.31-2.18,9.75,2.92,1.46,3.06,2.11,3.08,4.66,1.16a51.74,51.74,0,0,1,8.35-5.24c7.18-3.49,14.5-6.7,21.76-10,6.66-3.06,13.27-6.22,20-9.16,4.9-2.16,8.08-.43,9.17,4.78.27,1.29.14,2.67.39,4,.33,1.71.86,3.38,1.3,5.06,1.55-1,3.39-1.85,4.6-3.21A114.56,114.56,0,0,0,214.42,49c7.45-10.52,15.77-20.2,26.14-28,1.92-1.44,3.77-3.09,6.25-1.65,2.66,1.53,2.51,4.12,1.83,6.65-1.13,4.18-2.61,8.27-3.56,12.49-1.85,8.27-3.64,16.58-5.07,24.94-.9,5.3.72,6.54,5.74,4.81,5.35-1.85,10.58-4,15.89-6A16.12,16.12,0,0,1,266,61.08c3.49-.28,5.64,1.94,4.69,5.23-1.59,5.52-2.48,11.53-8.22,14.85a7,7,0,0,0-2,2.17c-1.68,2.45-1.3,4.37,1.59,4.87,8.35,1.47,14.58,6.38,20.39,11.94a44.36,44.36,0,0,1,7.9,9.48c6.45,11.25,12.48,22.74,18.65,34.15,3.09,5.71,6.4,11.32,9.07,17.22a26.23,26.23,0,0,1,2,9.64c.34,10,.29,20,.45,30,0,1.76.33,3.53.5,5.29ZM250.92,347.61l1.32.71c5-3.12,8.35-7.88,11.05-13a10.48,10.48,0,0,0,.79-6.52c-1.28-6.19-3.14-12.25-4.58-18.4a14.44,14.44,0,0,1-.32-5.91,4.38,4.38,0,0,1,2.78-2.94c1.09-.17,2.78.92,3.55,2s1,2.77,1.3,4.22c.79,3.58,1.38,7.2,2.26,10.75,1.7,6.89,2.8,7.28,8.57,3.36.28-.19.56-.36.83-.56,3-2.25,3-2.93.82-6-3.31-4.58-6.59-9.18-9.67-13.92a11.54,11.54,0,0,1-1.68-5.15c-.09-1.08.7-2.91,1.56-3.25,1.13-.45,2.82,0,4.07.49.78.32,1.23,1.5,1.78,2.33,3.49,5.26,7.07,10.46,10.38,15.84,1.78,2.88,3.77,2.65,5.63.66,4.07-4.38,8-8.87,11.74-13.55a7.67,7.67,0,0,0,.85-8.54c-3.33-6.28-5.42-13.26-10.71-18.48-3.05-3-3.34-5.95-1.24-7.32,3.06-2,5.13.4,6.8,2.3,2.51,2.85,4.55,6.11,6.85,9.15.76,1,1.7,1.89,2.55,2.83,1-1,2.52-1.76,3-3a25.25,25.25,0,0,0,2-8.06c.22-10.66.2-21.33.06-32-.28-21.64-.61-43.29-1.13-64.93a23.71,23.71,0,0,0-2.2-9.1c-2.39-5.12-5.4-9.94-8.11-14.92-5.55-10.22-10.87-20.58-16.67-30.67-6.39-11.14-15.07-19.29-28.7-20.68-4.6-.46-6.88-3.73-5.66-8.21,1-3.57,3.05-6.88,4.86-10.18a23.33,23.33,0,0,1,3.18-3.75l-.77-.86a31.53,31.53,0,0,0-3.23.74c-5.06,1.67-10.05,3.55-15.16,5.07-4.51,1.35-7.18-.46-7.67-5.09a27.18,27.18,0,0,1,.14-7c1.3-8.22,2.83-16.4,4.16-24.62a44.59,44.59,0,0,0,0-6,48.56,48.56,0,0,0-4.55,4.1c-3.88,4.79-7.59,9.71-11.46,14.5-5.65,7-11.26,14-17.18,20.79-1.19,1.36-4,2.45-5.56,2s-3.1-2.86-3.61-4.7a40.53,40.53,0,0,1-.94-8.91c-.29-6.29-.88-6.85-6.78-4.2-8.8,4-17.41,8.36-26.2,12.36-5.71,2.6-12,4.07-16.05,9.52a6.57,6.57,0,0,1-2,1.43c-5.66,3.36-7.65,3-11.52-2.29-1.39-1.9-2.75-2.34-4.54-.82-7.35,6.25-15.27,12.09-18.5,21.78-1.64,4.89-2.87,9.92-4.16,14.91-1.13,4.35-2.15,8.73-3.1,13.12-1.62,7.47-2.83,15.05-4.8,22.43-4.21,15.73-10.35,31-11.47,47.46a17.9,17.9,0,0,1-.77,2.89c-1.33,5.67-2.81,11.3-3.93,17-.93,4.8-.38,5.18,4.42,6.19,5.38,1.12,10.75,2.32,16,3.89,1.12.34,2.29,2.4,2.35,3.71,0,.81-1.94,2.26-3.15,2.44a20.52,20.52,0,0,1-6.43-.35c-3.28-.58-6.5-1.47-9.75-2.19-4.13-.92-5.24-.31-5.44,3.89A167.31,167.31,0,0,0,77,253.86c.33,6.11.38,12.48,2.19,18.21,3.91,12.38,8.73,24.47,13.49,36.56a153.63,153.63,0,0,0,7.46,15.26c2,3.81,3.25,4,6.41,1,3.87-3.66,7.55-7.53,11.39-11.23a17.37,17.37,0,0,1,4.68-3.67c1.27-.56,3.93-.55,4.39.19.75,1.22.38,3.24.16,4.89-.09.69-1,1.32-1.55,1.9-5.14,5-10.16,10.12-15.51,14.86-2.54,2.25-2.45,3.86-.43,6.21,5.75,6.67,12.31,12,20.76,15.1A121.44,121.44,0,0,1,148.82,362c5.74,3.32,11.68,6.28,18.21,6.4,17.13.31,34.32.73,51.39-.42,9.07-.61,17.08-6,24-12.21-3.65-5.53-3.48-5.42.22-11.07,1.7-2.6,2.68-5.67,3.84-8.59.86-2.16,1.19-4.58,2.32-6.56a4.27,4.27,0,0,1,3.6-1.76,4.13,4.13,0,0,1,2.49,3.14,37.67,37.67,0,0,1-1.33,8.33C252.83,342.07,251.8,344.82,250.92,347.61ZM70.33,220.82c.72-2.09,1.34-3.52,1.69-5,.6-2.59.88-5.26,1.55-7.83,4.26-16.39-2.82-29.51-12-42a2.89,2.89,0,0,0-.35-.35c-2.87-2.56-5.34-2.43-7.55.74a27.41,27.41,0,0,0-2.85,5.8c-7.22,18.64-7.4,38.14-6.23,57.63.52,8.63,5.39,15.55,14.1,18.27,11.14,3.48,11.67,3.68,11.13-9.46a4.43,4.43,0,0,0-2.2-3.37C64,234,63.09,231.12,62.28,228c-.46-1.73-1.13-3.4-1.71-5.1a3.58,3.58,0,0,0-1.73,2c-.77,2.48-1.6,5.2-5,4.2-3-.89-3.36-3.74-2.71-6.21.45-1.7,1.77-3.87,3.25-4.44,2.83-1.11,3.38-2.87,3.12-5.41q-1.17-11.15-2.35-22.27c-.14-1.32-.76-2.78-.39-3.92.45-1.39,1.55-3.32,2.66-3.53s2.82,1.13,4,2.14a4.72,4.72,0,0,1,.93,2.78c.75,5.92,1.48,11.84,2.1,17.76C65,211.15,66,216.07,70.33,220.82ZM320.4,246.53l1.67.36a20.35,20.35,0,0,0,2.18-2.49c3.47-5.67,7.16-11.22,10.21-17.11,2.72-5.26,4.65-10.93,7.06-16.37,1.66-3.77,3.53-7.45,5.33-11.15.59-1.22,1.25-2.4,2.09-4-3.79-.81-5.92.76-7.77,2.66-3.94,4-7.69,8.27-11.63,12.32-10.79,11.1-9,6.63-9.13,23C320.36,238,320.4,242.28,320.4,246.53Z"/><path d="M169.15,197.74c-.67-11,2-21.09,7.09-30.76,4.19-7.91,10.16-12.61,19.44-12.15,5.14.25,10.44-.08,15.38,1.08,5.4,1.28,10.58,3.72,15.63,6.14,3.31,1.58,3.93,5.08,4.2,8.54a77.39,77.39,0,0,1-5.37,35.25c-5.68,14-12.14,27.71-18.27,41.54-.2.46-.47.89-.71,1.33-4.55,8.26-8.95,10-18,7a28,28,0,0,1-6.49-2.54c-2-1.27-4.3-2.94-5.07-5A71.24,71.24,0,0,1,174,235.7c-1.07-6-1.89-12.11-2.88-18.16-.29-1.8-1-3.55-1.14-5.36C169.61,207.38,169.42,202.56,169.15,197.74Zm7.52,5.06c1.53,9.86,3.7,23.8,5.88,37.75a4.42,4.42,0,0,0,.15.48c1.46,5.69,6.35,7,11,8s5.47-3.43,7.25-6.3a3.13,3.13,0,0,0,.22-.45c5.6-12.63,11.35-25.19,16.77-37.9a68.68,68.68,0,0,0,5.18-30.79c-.24-4.53-1.13-5.38-5.59-6-2.94-.42-6.46-.28-8.64-1.87-4.53-3.29-9.35-3-14.32-3s-8.37,2.41-10.86,6.72C178.51,178.51,176.33,188.25,176.67,202.8Z"/><path d="M211.64,303c-2,0-4-.07-6,0-2.56.13-3.67,1.41-2.75,4,.85,2.36,2.2,4.84-.83,6.59-2,1.15-5.45-.31-6.54-3.93-1.95-6.52-6.35-7-11.92-6.8a53,53,0,0,1-16.7-1.7c-6.75-1.92-14.1-1.7-21.2-2.42-1.81-.18-3.93.1-5.34-.75s-2.2-2.89-3.26-4.4c1.4-.94,2.92-2.81,4.19-2.65,8,1,16,2.42,24.06,3.68a39.73,39.73,0,0,0,6.21.75c7.82,0,15.64-.36,23.46-.26a324.5,324.5,0,0,0,45.25-3c2.79-.36,5.52-1.24,8.31-1.64,2.1-.31,4.49.17,4.62,2.58.07,1.35-1.6,2.92-2.75,4.14a5,5,0,0,1-2.75,1.08c-12,1.8-24,3.54-36,5.3Z"/><path d="M119.7,203.7c-.82-10.91,1-21.26,7.2-30.51a19.14,19.14,0,0,1,3.15-3.84,6.84,6.84,0,0,1,8.35-.49c3.9,2.72,5.9,12.72,2.86,16.4-2.44,3-2.75,6.24-3.13,9.75a139.34,139.34,0,0,1-2.52,17.19c-.93,3.93-3.39,7.29-8,8s-7.26-1-7.82-5.53C119.34,211.07,119.7,207.36,119.7,203.7Zm13.53-23.54c-5,5.39-7.42,14.58-4.16,21.91C130.43,194.89,131.81,187.61,133.23,180.16Z"/><path d="M248.85,210.61c0-4.82-.12-9.64,0-14.46.19-6.11,2.46-11.31,7.41-15.15,2.8-2.17,5.89-3.32,9.29-1.84,3.21,1.4,3.71,4.5,3.73,7.58a86.46,86.46,0,0,1-.33,9c-.64,6.42-1.25,12.85-2.24,19.23a23.36,23.36,0,0,1-9.08,15.53c-4.31,3.25-8.37,1.49-8.74-3.9S248.84,215.93,248.85,210.61Zm7.7,4.39,1.77.24c-2.56-9.27,5-17.16,3.25-26.72-4.46.94-4.86,4.19-4.95,7.23C256.42,202.16,256.55,208.58,256.55,215Z"/><path d="M205.71,363c1-6.66,1.68-11.92,2.66-17.13q1.74-9.28,3.94-18.49a22.63,22.63,0,0,1,2.6-5.9c1.06-1.81,3-3.37,4.9-2,1.09.8,1.15,3.07,1.55,4.7.1.41-.24.95-.43,1.41-4.23,10.47-4.82,21.67-6.62,32.63-.29,1.79-.37,3.84-1.33,5.22s-3,2.64-4.26,2.36C207.25,365.5,206.16,363.46,205.71,363Z"/><path d="M161.38,324.68c-.55.69-1.15,2.11-2.19,2.6-7.26,3.46-11.8,10.06-17.79,15-1.91,1.57-3.84,3.31-6.07,4.21-1.33.53-3.26-.43-4.92-.72.31-1.64,0-3.85,1-4.81,5.9-5.81,11.94-11.51,18.25-16.87,2-1.71,4.94-2.64,7.61-3.26C159.41,320.32,161.11,321.62,161.38,324.68Z"/><path d="M190.27,329.42c-2,4.5-3.46,8.81-5.76,12.61a107.76,107.76,0,0,1-9.13,12.32,7.4,7.4,0,0,1-4.21,2.38,4.75,4.75,0,0,1-3.78-1.44c-.6-.72-.27-2.49.09-3.65a5.7,5.7,0,0,1,1.91-2.24c5.25-4.4,8.4-10.16,11-16.36a22.11,22.11,0,0,1,4-6.13c.64-.7,2.59-.82,3.59-.39S189.52,328.4,190.27,329.42Z"/><path d="M152.57,276a18.5,18.5,0,0,1,.38-2.86c.82-3.12,2.72-4.25,5.46-2.74,2.18,1.21,3.39,1.15,5-.83.86-1.06,3.32-2.2,4-1.75,1.23.88,2,2.77,2.43,4.38a37.37,37.37,0,0,1,1.22,7.2c.12,1.49.17,3.56-.69,4.39a5.06,5.06,0,0,1-4.48.85c-3.14-1.31-5.79-3.07-9.64-1.7C153.94,283.7,152.47,280.82,152.57,276Z"/><path d="M92,268.92c-1,0-1.49,0-2,0-2.38-.15-5.07-.28-5.39-3.27-.37-3.46,2.67-3.61,5-4.28,4.76-1.34,9.49-2.77,14.26-4.08a12.15,12.15,0,0,1,4.85-.73c1.2.2,2.9,1.38,3.15,2.41a4.21,4.21,0,0,1-1.7,3.6C104.38,265.68,98.43,268.74,92,268.92Z"/><path d="M221.31,266.53c.37-.66.85-2.62,2-3.25s3.08-.08,4.47.46c5.72,2.25,8.6,7.55,12.14,12,.82,1,.14,3.26.14,4.93-1.66,0-3.52.45-4.95-.14-1.59-.66-2.72-2.37-4.2-3.42a20.88,20.88,0,0,0-4.61-2.67C223,273.21,221.23,271,221.31,266.53Z"/><path d="M286.78,183.62c-.94,5.24-1.79,10.49-2.85,15.71-.48,2.37-1.59,4.82-4.55,4.22-3.24-.66-3.13-3.44-2.72-6q1.36-8.64,2.81-17.25c.39-2.33.75-5.06,3.94-4.72,2.73.29,2.93,2.8,3.06,5,.06,1,0,2,0,3Z"/><path d="M92.5,250c-2.33,0-4.78.45-6.94-.15-1.62-.44-3.68-2-4.08-3.47-.62-2.29,1.61-3.64,3.68-3.77,5.64-.33,11.3-.52,16.94-.35,1.24,0,3.44,1.86,3.39,2.76-.09,1.44-1.42,3.68-2.67,4-3.3.94-6.84,1-10.28,1.48Z"/><path d="M111.27,163.84c3.27-.16,4.76,2,3.84,4.71-1.67,5-3.25,10-5.27,14.85-.57,1.36-2.62,3-3.84,2.91s-3.12-2.32-3.11-3.59a27.64,27.64,0,0,1,5.66-17.07A8.77,8.77,0,0,1,111.27,163.84Z"/><path d="M99.3,296c-1.26-1-3.2-1.77-3.46-2.92s.76-3.53,1.83-4a73,73,0,0,1,12.61-4.24c1.22-.28,3.45,1.12,4.17,2.36.45.77-.7,3.48-1.74,3.94C108.51,293,104.08,294.35,99.3,296Z"/><path d="M126.86,282c2.14-5.67,5.06-10.05,10-12.67,1-.53,3.43-.22,4,.55a4.85,4.85,0,0,1,.23,4.41,78.39,78.39,0,0,1-8,10.19,4.91,4.91,0,0,1-4.34.82C127.77,284.94,127.38,283,126.86,282Z"/><path d="M190.13,277.53c-5.88-.19-8-2-7.87-6.61.15-3.69,2-5.85,4.87-5.68a8.78,8.78,0,0,1,8,8.24C195.12,276.37,193.57,277.64,190.13,277.53Z"/><path d="M207.88,268.29c.13-2,.12-2.83.24-3.64.32-2.11,1.19-4.28,3.54-3.93,1.36.21,3,1.94,3.54,3.35a20,20,0,0,1,1.19,7.29c0,1.38-1.07,3.72-2,3.88a5.41,5.41,0,0,1-4.56-1.63C208.59,271.86,208.27,269.42,207.88,268.29Z"/><path d="M245.17,272.79c.48-.6,1.27-2.49,2.46-2.79s3.15.7,4,1.75a15.54,15.54,0,0,1,2.89,5.7c.33,1.19,0,3.22-.85,3.89s-2.84.64-4.07.2C247.24,280.69,245.06,276.51,245.17,272.79Z"/><path d="M184.65,209.94c0-1.83-.09-3.66,0-5.48.31-5.37,1.26-6.24,6.88-6.56l.5,0c2.16-.33,5.12-2.36,6.2.51,1.16,3.07,1,6.72,1,10.11,0,.8-1.76,2.15-2.83,2.28-3.48.43-3.78,2.62-3.58,5.34.12,1.66.25,3.32.23,5,0,2.19-.08,4.65-2.83,5.13s-3.75-1.79-4.15-4c-.75-4.07-1.23-8.18-1.82-12.27Z"/><path d="M203.8,196.47c.13-1.83.65-3.73,3.27-3.78,2.15,0,5.51,4.72,5.38,7.52-.09,2.12-1.16,3.42-3.38,3.4C206.47,203.59,203.8,200.06,203.8,196.47Z"/></g></svg>
